<?xml version="1.0" encoding="UTF-8" standalone="no"?>
<svg
   xmlns:osb="http://www.openswatchbook.org/uri/2009/osb"
   xmlns:dc="http://purl.org/dc/elements/1.1/"
   xmlns:cc="http://creativecommons.org/ns#"
   xmlns:rdf="http://www.w3.org/1999/02/22-rdf-syntax-ns#"
   xmlns:svg="http://www.w3.org/2000/svg"
   xmlns="http://www.w3.org/2000/svg"
   xmlns:sodipodi="http://sodipodi.sourceforge.net/DTD/sodipodi-0.dtd"
   xmlns:inkscape="http://www.inkscape.org/namespaces/inkscape"
   version="1.1"
   viewBox="0.0 0.0 960.0 720.0"
   fill="none"
   stroke="none"
   stroke-linecap="square"
   stroke-miterlimit="10"
   id="svg269"
   sodipodi:docname="pack.svg"
   inkscape:version="1.0.2 (e86c870879, 2021-01-15, custom)"
   inkscape:export-filename="C:\Users\amroi\Documents\GitHub\DIYQuake_Notes\Quake\Notes003\notes\img\packnode.png"
   inkscape:export-xdpi="300"
   inkscape:export-ydpi="300">
  <metadata
     id="metadata275">
    <rdf:RDF>
      <cc:Work
         rdf:about="">
        <dc:format>image/svg+xml</dc:format>
        <dc:type
           rdf:resource="http://purl.org/dc/dcmitype/StillImage" />
      </cc:Work>
    </rdf:RDF>
  </metadata>
  <defs
     id="defs273">
    <rect
       x="426.5"
       y="8.5"
       width="449.5"
       height="397"
       id="rect1119" />
    <marker
       style="overflow:visible;"
       id="marker2025"
       refX="0.0"
       refY="0.0"
       orient="auto"
       inkscape:stockid="Arrow2Lend"
       inkscape:isstock="true">
      <path
         transform="scale(1.1) rotate(180) translate(1,0)"
         d="M 8.7185878,4.0337352 L -2.2072895,0.016013256 L 8.7185884,-4.0017078 C 6.9730900,-1.6296469 6.9831476,1.6157441 8.7185878,4.0337352 z "
         style="fill-rule:evenodd;stroke-width:0.625;stroke-linejoin:round;stroke:#000000;stroke-opacity:1"
         id="path2023" />
    </marker>
    <linearGradient
       id="linearGradient1923"
       osb:paint="solid">
      <stop
         style="stop-color:#000000;stop-opacity:1;"
         offset="0"
         id="stop1921" />
    </linearGradient>
    <marker
       style="overflow:visible;"
       id="marker1324"
       refX="0.0"
       refY="0.0"
       orient="auto"
       inkscape:stockid="Arrow2Lend"
       inkscape:isstock="true">
      <path
         transform="scale(1.1) rotate(180) translate(1,0)"
         d="M 8.7185878,4.0337352 L -2.2072895,0.016013256 L 8.7185884,-4.0017078 C 6.9730900,-1.6296469 6.9831476,1.6157441 8.7185878,4.0337352 z "
         style="fill-rule:evenodd;stroke-width:0.625;stroke-linejoin:round;stroke:#000000;stroke-opacity:1;fill:#000000;fill-opacity:1"
         id="path1322" />
    </marker>
    <marker
       style="overflow:visible;"
       id="marker1146"
       refX="0.0"
       refY="0.0"
       orient="auto"
       inkscape:stockid="Arrow1Lend"
       inkscape:isstock="true">
      <path
         transform="scale(0.8) rotate(180) translate(12.5,0)"
         style="fill-rule:evenodd;stroke:#00ff00;stroke-width:1pt;stroke-opacity:1"
         d="M 0.0,0.0 L 5.0,-5.0 L -12.5,0.0 L 5.0,5.0 L 0.0,0.0 z "
         id="path1144" />
    </marker>
    <marker
       style="overflow:visible;"
       id="marker2543"
       refX="0.0"
       refY="0.0"
       orient="auto"
       inkscape:stockid="Arrow1Lend"
       inkscape:isstock="true">
      <path
         transform="scale(0.8) rotate(180) translate(12.5,0)"
         style="fill-rule:evenodd;stroke:#00ff00;stroke-width:1pt;stroke-opacity:1"
         d="M 0.0,0.0 L 5.0,-5.0 L -12.5,0.0 L 5.0,5.0 L 0.0,0.0 z "
         id="path2541" />
    </marker>
    <marker
       style="overflow:visible;"
       id="marker2271"
       refX="0.0"
       refY="0.0"
       orient="auto"
       inkscape:stockid="Arrow2Lend"
       inkscape:isstock="true">
      <path
         transform="scale(1.1) rotate(180) translate(1,0)"
         d="M 8.7185878,4.0337352 L -2.2072895,0.016013256 L 8.7185884,-4.0017078 C 6.9730900,-1.6296469 6.9831476,1.6157441 8.7185878,4.0337352 z "
         style="fill-rule:evenodd;stroke-width:0.625;stroke-linejoin:round;stroke:#00ff00;stroke-opacity:1"
         id="path2269" />
    </marker>
    <marker
       style="overflow:visible;"
       id="Arrow2Lend"
       refX="0.0"
       refY="0.0"
       orient="auto"
       inkscape:stockid="Arrow2Lend"
       inkscape:isstock="true">
      <path
         transform="scale(1.1) rotate(180) translate(1,0)"
         d="M 8.7185878,4.0337352 L -2.2072895,0.016013256 L 8.7185884,-4.0017078 C 6.9730900,-1.6296469 6.9831476,1.6157441 8.7185878,4.0337352 z "
         style="fill-rule:evenodd;stroke-width:0.625;stroke-linejoin:round;stroke:#000000;stroke-opacity:1"
         id="path1208" />
    </marker>
    <marker
       style="overflow:visible"
       id="Arrow2Lstart"
       refX="0.0"
       refY="0.0"
       orient="auto"
       inkscape:stockid="Arrow2Lstart"
       inkscape:isstock="true">
      <path
         transform="scale(1.1) translate(1,0)"
         d="M 8.7185878,4.0337352 L -2.2072895,0.016013256 L 8.7185884,-4.0017078 C 6.9730900,-1.6296469 6.9831476,1.6157441 8.7185878,4.0337352 z "
         style="fill-rule:evenodd;stroke-width:0.625;stroke-linejoin:round;stroke:#000000;stroke-opacity:1"
         id="path1182" />
    </marker>
    <marker
       style="overflow:visible"
       id="marker1477-5"
       refX="0"
       refY="0"
       orient="auto"
       inkscape:stockid="Arrow2Lend"
       inkscape:isstock="true">
      <path
         transform="matrix(-1.1,0,0,-1.1,-1.1,0)"
         d="M 8.7185878,4.0337352 -2.2072895,0.01601326 8.7185884,-4.0017078 c -1.7454984,2.3720609 -1.7354408,5.6174519 -6e-7,8.035443 z"
         style="fill-rule:evenodd;stroke:#000000;stroke-width:0.625;stroke-linejoin:round;stroke-opacity:1"
         id="path1475-0" />
    </marker>
    <marker
       style="overflow:visible"
       id="marker1477-5-7"
       refX="0"
       refY="0"
       orient="auto"
       inkscape:stockid="Arrow2Lend"
       inkscape:isstock="true">
      <path
         transform="matrix(-1.1,0,0,-1.1,-1.1,0)"
         d="M 8.7185878,4.0337352 -2.2072895,0.01601326 8.7185884,-4.0017078 c -1.7454984,2.3720609 -1.7354408,5.6174519 -6e-7,8.035443 z"
         style="fill-rule:evenodd;stroke:#00ff00;stroke-width:0.625;stroke-linejoin:round;stroke-opacity:1"
         id="path1475-0-3" />
    </marker>
  </defs>
  <sodipodi:namedview
     pagecolor="#ffffff"
     bordercolor="#666666"
     borderopacity="1"
     objecttolerance="10"
     gridtolerance="10"
     guidetolerance="10"
     inkscape:pageopacity="0"
     inkscape:pageshadow="2"
     inkscape:window-width="2560"
     inkscape:window-height="1377"
     id="namedview271"
     showgrid="false"
     inkscape:zoom="2"
     inkscape:cx="519.96211"
     inkscape:cy="282.93794"
     inkscape:window-x="-8"
     inkscape:window-y="-8"
     inkscape:window-maximized="1"
     inkscape:current-layer="g267"
     inkscape:document-rotation="0"
     showguides="true"
     inkscape:guide-bbox="true">
    <sodipodi:guide
       position="82.084102,710.22808"
       orientation="1,0"
       id="guide1157" />
    <sodipodi:guide
       position="17.629921,711.53281"
       orientation="1,0"
       id="guide1169" />
    <sodipodi:guide
       position="143.97291,593.61654"
       orientation="1,0"
       id="guide1171" />
    <sodipodi:guide
       position="92.50748,637.9159"
       orientation="0,-1"
       id="guide1919" />
    <sodipodi:guide
       position="815.62933,618.37206"
       orientation="1,0"
       id="guide2451" />
  </sodipodi:namedview>
  <clipPath
     id="p.0">
    <path
       d="m0 0l960.0 0l0 720.0l-960.0 0l0 -720.0z"
       clip-rule="nonzero"
       id="path2" />
  </clipPath>
  <g
     clip-path="url(#p.0)"
     id="g267">
    <path
       fill="#000000"
       fill-opacity="0.0"
       d="m0 0l960.0 0l0 720.0l-960.0 0z"
       fill-rule="evenodd"
       id="path5" />
    <path
       fill="#cfe2f3"
       d="M 276.26,85.396957 H 402.11827 V 266.81318 H 276.26 Z"
       fill-rule="evenodd"
       id="path183"
       style="stroke-width:0.805068" />
    <path
       stroke="#000000"
       stroke-width="0.734281"
       stroke-linejoin="round"
       stroke-linecap="butt"
       d="M 276.29409,85.431042 H 402.08418 V 265.77909 H 276.29409 Z"
       fill-rule="evenodd"
       id="path185"
       style="stroke-width:0.802169;stroke-linejoin:miter;stroke-miterlimit:10;stroke-dasharray:none" />
    <path
       fill="#000000"
       fill-opacity="0"
       d="m 274.98441,76.823463 128.40945,-0.03149"
       fill-rule="evenodd"
       id="path187" />
    <path
       fill="#000000"
       stroke="#000000"
       stroke-width="1"
       stroke-linecap="butt"
       d="m 281.06544,75.2517 -4.5377,1.652839 4.53851,1.65062 z"
       fill-rule="evenodd"
       id="path191" />
    <path
       fill="#000000"
       stroke="#000000"
       stroke-width="1"
       stroke-linecap="butt"
       d="m 397.4757,78.689475 4.53769,-1.652847 -4.5385,-1.65062 z"
       fill-rule="evenodd"
       id="path193" />
    <path
       fill="#000000"
       fill-opacity="0"
       d="M 278.87417,36.16336 H 399.50408 V 68.88777 H 278.87417 Z"
       fill-rule="evenodd"
       id="path195" />
    <path
       fill="#000000"
       d="m 312.48703,59.552107 1.64062,-0.21875 q 0.28125,1.40625 0.95313,2.015625 0.6875,0.609375 1.65625,0.609375 1.15625,0 1.95312,-0.796875 0.79688,-0.796875 0.79688,-1.984375 0,-1.125 -0.73438,-1.859375 -0.73437,-0.734375 -1.875,-0.734375 -0.46875,0 -1.15625,0.171875 l 0.1875,-1.4375 q 0.15625,0.01563 0.26563,0.01563 1.04687,0 1.875,-0.546875 0.84375,-0.546875 0.84375,-1.671875 0,-0.90625 -0.60938,-1.5 -0.60937,-0.59375 -1.57812,-0.59375 -0.95313,0 -1.59375,0.609375 -0.64063,0.59375 -0.8125,1.796875 l -1.64063,-0.296875 q 0.29688,-1.640625 1.35938,-2.546875 1.0625,-0.90625 2.65625,-0.90625 1.09375,0 2,0.46875 0.92187,0.46875 1.40625,1.28125 0.5,0.8125 0.5,1.71875 0,0.859375 -0.46875,1.578125 -0.46875,0.703125 -1.375,1.125 1.1875,0.28125 1.84375,1.140625 0.65625,0.859375 0.65625,2.15625 0,1.734375 -1.28125,2.953125 -1.26563,1.21875 -3.21875,1.21875 -1.76563,0 -2.92188,-1.046875 -1.15625,-1.046875 -1.32812,-2.71875 z m 18.98509,1.953125 v 1.578125 h -8.82813 q -0.0156,-0.59375 0.1875,-1.140625 0.34375,-0.90625 1.07813,-1.78125 0.75,-0.875 2.15625,-2.015625 2.17187,-1.78125 2.9375,-2.828125 0.76562,-1.046875 0.76562,-1.96875 0,-0.984375 -0.70312,-1.640625 -0.6875,-0.671875 -1.8125,-0.671875 -1.1875,0 -1.90625,0.71875 -0.70313,0.703125 -0.70313,1.953125 l -1.6875,-0.171875 q 0.17188,-1.890625 1.29688,-2.875 1.14062,-0.984375 3.03125,-0.984375 1.92187,0 3.04687,1.0625 1.125,1.0625 1.125,2.640625 0,0.796875 -0.32812,1.578125 -0.32813,0.78125 -1.09375,1.640625 -0.75,0.84375 -2.53125,2.34375 -1.46875,1.234375 -1.89063,1.6875 -0.42187,0.4375 -0.6875,0.875 z m 8.90277,1.578125 h -1.51563 V 49.723982 h 1.64063 v 4.765625 q 1.04687,-1.296875 2.65625,-1.296875 0.89062,0 1.6875,0.359375 0.79687,0.359375 1.3125,1.015625 0.51562,0.640625 0.79687,1.5625 0.29688,0.921875 0.29688,1.96875 0,2.484375 -1.23438,3.84375 -1.21875,1.359375 -2.95312,1.359375 -1.70313,0 -2.6875,-1.4375 z m -0.0156,-4.90625 q 0,1.734375 0.48438,2.515625 0.76562,1.265625 2.09375,1.265625 1.07812,0 1.85937,-0.9375 0.78125,-0.9375 0.78125,-2.78125 0,-1.890625 -0.75,-2.796875 -0.75,-0.90625 -1.82812,-0.90625 -1.0625,0 -1.85938,0.9375 -0.78125,0.9375 -0.78125,2.703125 z m 8.89135,-6.5625 v -1.890625 h 1.64062 v 1.890625 z m 0,11.46875 v -9.671875 h 1.64062 v 9.671875 z m 7.72294,-1.46875 0.23438,1.453125 q -0.6875,0.140625 -1.23438,0.140625 -0.89062,0 -1.39062,-0.28125 -0.48438,-0.28125 -0.6875,-0.734375 -0.20313,-0.46875 -0.20313,-1.9375 v -5.578125 h -1.20312 v -1.265625 h 1.20312 v -2.390625 l 1.625,-0.984375 v 3.375 h 1.65625 v 1.265625 h -1.65625 v 5.671875 q 0,0.6875 0.0781,0.890625 0.0937,0.203125 0.28125,0.328125 0.20312,0.109375 0.57812,0.109375 0.26563,0 0.71875,-0.0625 z m 0.94893,-1.421875 1.625,-0.25 q 0.125,0.96875 0.75,1.5 0.625,0.515625 1.75,0.515625 1.125,0 1.67188,-0.453125 0.54687,-0.46875 0.54687,-1.09375 0,-0.546875 -0.48437,-0.875 -0.32813,-0.21875 -1.67188,-0.546875 -1.8125,-0.46875 -2.51562,-0.796875 -0.6875,-0.328125 -1.04688,-0.90625 -0.35937,-0.59375 -0.35937,-1.3125 0,-0.640625 0.29687,-1.1875 0.29688,-0.5625 0.8125,-0.921875 0.375,-0.28125 1.03125,-0.46875 0.67188,-0.203125 1.42188,-0.203125 1.14062,0 2,0.328125 0.85937,0.328125 1.26562,0.890625 0.42188,0.5625 0.57813,1.5 l -1.60938,0.21875 q -0.10937,-0.75 -0.64062,-1.171875 -0.51563,-0.421875 -1.46875,-0.421875 -1.14063,0 -1.625,0.375 -0.46875,0.375 -0.46875,0.875 0,0.3125 0.1875,0.578125 0.20312,0.265625 0.64062,0.4375 0.23438,0.09375 1.4375,0.421875 1.75,0.453125 2.4375,0.75 0.6875,0.296875 1.07813,0.859375 0.39062,0.5625 0.39062,1.40625 0,0.828125 -0.48437,1.546875 -0.46875,0.71875 -1.375,1.125 -0.90625,0.390625 -2.04688,0.390625 -1.875,0 -2.875,-0.78125 -0.98437,-0.78125 -1.25,-2.328125 z"
       fill-rule="nonzero"
       id="path197" />
    <path
       stroke="#000000"
       stroke-width="1.6054"
       stroke-linejoin="round"
       stroke-linecap="butt"
       d="M 288.97215,92.323012 H 389.40612 V 159.20641 H 288.97215 Z"
       fill-rule="evenodd"
       id="path205" />
    <path
       stroke="#000000"
       stroke-width="1"
       stroke-linejoin="round"
       stroke-linecap="butt"
       d="m 288.66945,169.64893 h 101.03937 v 25.79528 H 288.66945 Z"
       fill-rule="evenodd"
       id="path211" />
    <path
       stroke="#000000"
       stroke-width="1"
       stroke-linejoin="round"
       stroke-linecap="butt"
       d="M 288.66945,201.18042 H 389.70882 V 226.9757 H 288.66945 Z"
       fill-rule="evenodd"
       id="path217"
       style="stroke-linejoin:miter" />
    <path
       fill="#000000"
       fill-opacity="0"
       d="M 276.26,12.375959 H 407.69307 V 53.667295 H 276.26 Z"
       fill-rule="evenodd"
       id="path251" />
    <text
       xml:space="preserve"
       style="font-style:normal;font-weight:normal;font-size:18.6667px;line-height:1.25;font-family:sans-serif;fill:#000000;fill-opacity:1;stroke:none"
       x="300.32358"
       y="130.94366"
       id="text1153"><tspan
         sodipodi:role="line"
         id="tspan1151"
         x="300.32358"
         y="130.94366">filename</tspan></text>
    <text
       xml:space="preserve"
       style="font-style:normal;font-weight:normal;font-size:18.6667px;line-height:1.25;font-family:sans-serif;fill:#000000;fill-opacity:1;stroke:none"
       x="300.54987"
       y="189.27228"
       id="text1161"><tspan
         sodipodi:role="line"
         id="tspan1159"
         x="300.54987"
         y="189.27228">*handle</tspan></text>
    <text
       xml:space="preserve"
       style="font-style:normal;font-weight:normal;font-size:18.6667px;line-height:1.25;font-family:sans-serif;fill:#000000;fill-opacity:1;stroke:none"
       x="299.00427"
       y="219.69385"
       id="text1165"><tspan
         sodipodi:role="line"
         id="tspan1163"
         x="299.00427"
         y="219.69385">numfiles</tspan></text>
    <text
       xml:space="preserve"
       style="font-style:normal;font-weight:normal;font-size:40px;line-height:1.25;font-family:sans-serif;fill:#000000;fill-opacity:1;stroke:none"
       x="301.87415"
       y="40.663361"
       id="text1175"><tspan
         sodipodi:role="line"
         id="tspan1173"
         x="301.87415"
         y="40.663361"
         style="font-size:14.6667px">Pack node</tspan></text>
    <path
       style="fill:#00ff00;fill-opacity:1;stroke:#00ff00;stroke-width:0.115163;stroke-linejoin:miter;stroke-miterlimit:10;stroke-dasharray:0.460653, 0.460653;stroke-dashoffset:0;stroke-opacity:1"
       d=""
       id="path2613" />
    <text
       xml:space="preserve"
       id="text1117"
       style="fill:black;fill-opacity:1;line-height:1.25;stroke:none;font-family:sans-serif;font-style:normal;font-weight:normal;font-size:40px;white-space:pre;shape-inside:url(#rect1119);" />
    <path
       stroke="#000000"
       stroke-width="1"
       stroke-linejoin="round"
       stroke-linecap="butt"
       d="m 287.98031,234.10236 h 101.03937 v 25.79528 H 287.98031 Z"
       fill-rule="evenodd"
       id="path217-1"
       style="stroke-linejoin:miter" />
    <text
       xml:space="preserve"
       style="font-style:normal;font-weight:normal;font-size:18.6667px;line-height:1.25;font-family:sans-serif;fill:#000000;fill-opacity:1;stroke:none"
       x="298.31512"
       y="252.61578"
       id="text1165-6"><tspan
         sodipodi:role="line"
         id="tspan1163-7"
         x="298.31512"
         y="252.61578">*packfile</tspan></text>
    <rect
       style="fill:#cfe2f3;fill-opacity:1;stroke:#000000;stroke-width:0.880324;stroke-miterlimit:10;stroke-dasharray:none"
       id="rect1364"
       width="123.12373"
       height="138.58041"
       x="277.02231"
       y="283.26056" />
    <path
       stroke="#000000"
       stroke-width="1.6054"
       stroke-linejoin="round"
       stroke-linecap="butt"
       d="m 288.28302,288.5583 h 100.43397 v 66.8834 H 288.28302 Z"
       fill-rule="evenodd"
       id="path205-2" />
    <text
       xml:space="preserve"
       style="font-style:normal;font-weight:normal;font-size:18.6667px;line-height:1.25;font-family:sans-serif;fill:#000000;fill-opacity:1;stroke:none"
       x="299.63446"
       y="327.17896"
       id="text1153-3"><tspan
         sodipodi:role="line"
         id="tspan1151-7"
         x="299.63446"
         y="327.17896">filename</tspan></text>
    <path
       stroke="#000000"
       stroke-width="1"
       stroke-linejoin="round"
       stroke-linecap="butt"
       d="m 286.98031,360.83661 h 101.03937 v 25.79528 H 286.98031 Z"
       fill-rule="evenodd"
       id="path211-3" />
    <path
       stroke="#000000"
       stroke-width="1"
       stroke-linejoin="round"
       stroke-linecap="butt"
       d="m 286.98031,392.3681 h 101.03937 v 25.79528 H 286.98031 Z"
       fill-rule="evenodd"
       id="path217-5"
       style="stroke-linejoin:miter" />
    <text
       xml:space="preserve"
       style="font-style:normal;font-weight:normal;font-size:18.6667px;line-height:1.25;font-family:sans-serif;fill:#000000;fill-opacity:1;stroke:none"
       x="306.36072"
       y="378.95996"
       id="text1161-5"><tspan
         sodipodi:role="line"
         id="tspan1159-9"
         x="306.36072"
         y="378.95996">filepos</tspan></text>
    <text
       xml:space="preserve"
       style="font-style:normal;font-weight:normal;font-size:18.6667px;line-height:1.25;font-family:sans-serif;fill:#000000;fill-opacity:1;stroke:none"
       x="309.31512"
       y="412.88153"
       id="text1165-1"><tspan
         sodipodi:role="line"
         id="tspan1163-1"
         x="309.31512"
         y="412.88153">filelen</tspan></text>
    <path
       style="fill:none;stroke:#000000;stroke-width:0.93116999;stroke-linecap:butt;stroke-linejoin:miter;stroke-opacity:1;marker-end:url(#marker1324);stroke-miterlimit:10;stroke-dasharray:1.86233997,1.86233997;stroke-dashoffset:0"
       d="m 389.94278,246.48654 h 70.61364 v 36.35869 h -58.59429"
       id="path1434" />
  </g>
  <path
     style="fill:none;stroke:#000000;stroke-width:1px;stroke-linecap:butt;stroke-linejoin:miter;stroke-opacity:1"
     d="M 281.20205,77.037366 H 397.05618"
     id="path1127" />
</svg>
